# xmcd
#
# Track frame offsets:
#   150
#   17175
#   36951
#   52830
#   72112
#   89930
#   112932
#   130310
#   151285
#   166511
#   186586
#   204263
#   219701
#   237608
#   260505
#   280721
#
# Disc length: 3948 seconds
#
# Revision: 0
# Processed by: cddbd v1.5.1PL0 Copyright (c) Steve Scherf et al.
# Submitted via: uFREEDB ActiveX Control 1.5
#
DISCID=e60f6a10
DTITLE=Feras do Pagode - .
DYEAR=1900
DGENRE=
TTITLE0=Inconsequente - Os Travessos
TTITLE1=Distância - Os Travessos
TTITLE2=Mentiras - Os Travessos
TTITLE3=O Grande amor da minha vida - Vavá
TTITLE4=Sim ou não - Vavá
TTITLE5=Não te deixo me diexar - Vavá
TTITLE6=Caminhos - Refla
TTITLE7=Meu Anjo - Refla
TTITLE8=Teu Beijo - Refla
TTITLE9=Presciso te amar - Revelação
TTITLE10=Coração Radiante - Revelação
TTITLE11=Grades do coração - Revelação
TTITLE12=Solidão - SPC
TTITLE13=POUT-PORRI - a:Mineirinho b: Forró no escuro
TTITLE14=Atração Fatal - Sorriso de Marfin
TTITLE15=Labirinto - Sorriso de marfin
EXTD=
EXTT0=
EXTT1=
EXTT2=
EXTT3=
EXTT4=
EXTT5=
EXTT6=
EXTT7=
EXTT8=
EXTT9=
EXTT10=
EXTT11=
EXTT12=
EXTT13=
EXTT14=
EXTT15=
PLAYORDER=
